<svg xmlns="http://www.w3.org/2000/svg" width="512px" height="512px" viewBox="0 0 54.169 37.241">
  <g id="youtube" transform="translate(0 -80)">
    <g id="Group_1268" data-name="Group 1268" transform="translate(0 80)">
      <path id="Path_2259" data-name="Path 2259" d="M51.867,83.589c-1.469-2.614-3.064-3.094-6.311-3.277-3.243-.22-11.4-.311-18.465-.311s-15.238.091-18.478.308c-3.24.186-4.838.664-6.321,3.281C.779,86.2,0,90.695,0,98.61v.027c0,7.882.779,12.411,2.292,14.995,1.483,2.614,3.077,3.088,6.317,3.308,3.243.19,11.4.3,18.482.3s15.221-.112,18.468-.3c3.247-.22,4.841-.694,6.311-3.308,1.527-2.583,2.3-7.113,2.3-14.995v-.027C54.169,90.695,53.4,86.2,51.867,83.589ZM20.313,108.777V88.464L37.241,98.621Z" transform="translate(0 -80)" fill="#fff"/>
    </g>
  </g>
</svg>
